<mxfile host="Electron" modified="2024-03-11T20:14:35.259Z" agent="Mozilla/5.0 (Windows NT 10.0; Win64; x64) AppleWebKit/537.36 (KHTML, like Gecko) draw.io/23.1.5 Chrome/120.0.6099.109 Electron/28.1.0 Safari/537.36" version="23.1.5" etag="fvRd7z-4cRWjTwdrpWDb" type="device">
  <diagram id="IrV2Y6W-zNqxnQPU8o2P" name="Page-1">
    <mxGraphModel dx="1050" dy="621" grid="1" gridSize="10" guides="1" tooltips="1" connect="1" arrows="1" fold="1" page="1" pageScale="1" pageWidth="850" pageHeight="1100" math="0" shadow="0">
      <root>
        <mxCell id="0" />
        <mxCell id="1" parent="0" />
        <mxCell id="0qHd_6sBEKrXRUAHCcZE-15" value="&lt;b&gt;&lt;font style=&quot;font-size: 14px;&quot;&gt;Speler&lt;/font&gt;&lt;/b&gt;" style="swimlane;fontStyle=0;childLayout=stackLayout;horizontal=1;startSize=40;horizontalStack=0;resizeParent=1;resizeParentMax=0;resizeLast=0;collapsible=1;marginBottom=0;whiteSpace=wrap;html=1;fillColor=#f5f5f5;fontColor=#333333;strokeColor=#666666;" vertex="1" parent="1">
          <mxGeometry x="320" y="280" width="120" height="120" as="geometry" />
        </mxCell>
        <mxCell id="0qHd_6sBEKrXRUAHCcZE-16" value="- &lt;u&gt;gebruikersnaam&lt;/u&gt;" style="text;strokeColor=none;fillColor=none;align=left;verticalAlign=middle;spacingLeft=4;spacingRight=4;overflow=hidden;points=[[0,0.5],[1,0.5]];portConstraint=eastwest;rotatable=0;whiteSpace=wrap;html=1;" vertex="1" parent="0qHd_6sBEKrXRUAHCcZE-15">
          <mxGeometry y="40" width="120" height="20" as="geometry" />
        </mxCell>
        <mxCell id="0qHd_6sBEKrXRUAHCcZE-17" value="- geboortejaar" style="text;strokeColor=none;fillColor=none;align=left;verticalAlign=middle;spacingLeft=4;spacingRight=4;overflow=hidden;points=[[0,0.5],[1,0.5]];portConstraint=eastwest;rotatable=0;whiteSpace=wrap;html=1;" vertex="1" parent="0qHd_6sBEKrXRUAHCcZE-15">
          <mxGeometry y="60" width="120" height="20" as="geometry" />
        </mxCell>
        <mxCell id="0qHd_6sBEKrXRUAHCcZE-18" value="- aantalGewonnen" style="text;strokeColor=none;fillColor=none;align=left;verticalAlign=middle;spacingLeft=4;spacingRight=4;overflow=hidden;points=[[0,0.5],[1,0.5]];portConstraint=eastwest;rotatable=0;whiteSpace=wrap;html=1;" vertex="1" parent="0qHd_6sBEKrXRUAHCcZE-15">
          <mxGeometry y="80" width="120" height="20" as="geometry" />
        </mxCell>
        <mxCell id="0qHd_6sBEKrXRUAHCcZE-19" value="- aantalGespeeld" style="text;strokeColor=none;fillColor=none;align=left;verticalAlign=middle;spacingLeft=4;spacingRight=4;overflow=hidden;points=[[0,0.5],[1,0.5]];portConstraint=eastwest;rotatable=0;whiteSpace=wrap;html=1;" vertex="1" parent="0qHd_6sBEKrXRUAHCcZE-15">
          <mxGeometry y="100" width="120" height="20" as="geometry" />
        </mxCell>
      </root>
    </mxGraphModel>
  </diagram>
</mxfile>
